<?xml version="1.0" encoding="UTF-8"?>
<svg width="18px" height="18px" viewBox="0 0 18 18" version="1.1" xmlns="http://www.w3.org/2000/svg" xmlns:xlink="http://www.w3.org/1999/xlink">
    <!-- Generator: Sketch 48.2 (47327) - http://www.bohemiancoding.com/sketch -->
    <title>search</title>
    <desc>Created with Sketch.</desc>
    <defs></defs>
    <g id="main-page" stroke="none" stroke-width="1" fill="none" fill-rule="evenodd" transform="translate(-990.000000, -64.000000)">
        <g id="search" transform="translate(816.000000, 53.000000)" fill="#9B9B9B" fill-rule="nonzero">
            <g transform="translate(174.000000, 11.000000)" id="Shape">
                <path d="M17.7539062,15.5636719 L14.2488281,12.0585938 C14.090625,11.9003906 13.8761719,11.8125 13.6511719,11.8125 L13.078125,11.8125 C14.0484375,10.5714844 14.625,9.01054688 14.625,7.3125 C14.625,3.27304687 11.3519531,0 7.3125,0 C3.27304688,0 0,3.27304687 0,7.3125 C0,11.3519531 3.27304687,14.625 7.3125,14.625 C9.01054687,14.625 10.5714844,14.0484375 11.8125,13.078125 L11.8125,13.6511719 C11.8125,13.8761719 11.9003906,14.090625 12.0585937,14.2488281 L15.5636719,17.7539062 C15.8941406,18.084375 16.4285156,18.084375 16.7554687,17.7539062 L17.7503906,16.7589844 C18.0808594,16.4285156 18.0808594,15.8941406 17.7539062,15.5636719 Z M7.3125,11.8125 C4.82695313,11.8125 2.8125,9.8015625 2.8125,7.3125 C2.8125,4.82695313 4.8234375,2.8125 7.3125,2.8125 C9.79804688,2.8125 11.8125,4.8234375 11.8125,7.3125 C11.8125,9.79804688 9.8015625,11.8125 7.3125,11.8125 Z"></path>
            </g>
        </g>
    </g>
</svg>